<svg width="1000" height="340" viewBox="0 0 1000 340" xmlns="http://www.w3.org/2000/svg">
<defs>
  <linearGradient id="bg" x1="0" y1="0" x2="1" y2="1">
    <stop offset="0" stop-color="#0b1016"/>
    <stop offset="1" stop-color="#111820"/>
  </linearGradient>
</defs>
<rect width="1000" height="340" rx="18" fill="url(#bg)"/>
<rect x="1" y="1" width="998" height="338" rx="17" fill="none" stroke="#4d402e"/>
<path d="M56 95 H944" stroke="#6f5836" stroke-width="1"/>
<path d="M487 95 L500 82 L513 95 L500 108 Z" fill="#c59b59" opacity=".9"/>
<style>
.title { font: 700 22px ui-monospace, SFMono-Regular, Menlo, Consolas, monospace; fill:#e3dccd; letter-spacing:2px; }
.kicker { font: 11px ui-monospace, SFMono-Regular, Menlo, Consolas, monospace; fill:#887a66; letter-spacing:1.5px; }
.metric { font: 700 12px ui-monospace, SFMono-Regular, Menlo, Consolas, monospace; fill:#c59b59; }
.repo { font: 700 13px ui-monospace, SFMono-Regular, Menlo, Consolas, monospace; fill:#dfd4c0; }
.desc { font: 12px ui-monospace, SFMono-Regular, Menlo, Consolas, monospace; fill:#a9a091; }
.meta { font: 11px ui-monospace, SFMono-Regular, Menlo, Consolas, monospace; fill:#7f7669; text-anchor:end; }
.muted { font: 13px ui-monospace, SFMono-Regular, Menlo, Consolas, monospace; fill:#8b8377; }
</style>
<text x="56" y="48" class="title">LATEST PUBLIC WORK</text>
<text x="56" y="72" class="kicker">SELF-HOSTED  ·  GENERATED BY GITHUB ACTIONS</text>
<text x="944" y="48" class="meta">last push  2026-09-04</text>
<text x="944" y="72" class="metric" text-anchor="end">4 REPOS  ·  1 STARS  ·  Java</text>
<circle cx="61" cy="154" r="3" fill="#c59b59"/><text x="78" y="159" class="repo">RPG-Menu-Framework</text><text x="340" y="159" class="desc">A minecraft mod for modpack developers</text><text x="944" y="159" class="meta">Java  ·  2026-09-04</text><circle cx="61" cy="194" r="3" fill="#c59b59"/><text x="78" y="199" class="repo">originspore</text><text x="340" y="199" class="desc">Active project</text><text x="944" y="199" class="meta">Java  ·  2026-07-01</text><circle cx="61" cy="234" r="3" fill="#c59b59"/><text x="78" y="239" class="repo">Skydome-GM-Manager</text><text x="340" y="239" class="desc">自用游戏系统</text><text x="944" y="239" class="meta">TypeScript  ·  2025-12-17</text><circle cx="61" cy="274" r="3" fill="#c59b59"/><text x="78" y="279" class="repo">Vitalink-Wiki</text><text x="340" y="279" class="desc">由Rutsunine主创的OC知识库网站</text><text x="944" y="279" class="meta">TypeScript  ·  2025-12-15</text>
<text x="944" y="318" class="meta">github.com/Axira-A</text>
</svg>